# xmcd CD database file
#
# Track frame offsets:
#	150
#	24777
#	35854
#	56618
#	64486
#	87822
#	104205
#	112784
#	134255
#	145197
#	154745
#	183901
#
# Disc length: 2620 seconds
#
# Revision: 0
# Processed by: cddbd v1.5.1PL2 Copyright (c) Steve Scherf et al.
# Submitted via: CDex 1.51
#
DISCID=a30a3a0c
DTITLE=Mats Eilertsen - Flux
DYEAR=2005
DGENRE=Jazz
TTITLE0=No Fuzz for Buzz
TTITLE1=4D
TTITLE2=Olivier
TTITLE3=Lunar
TTITLE4=Flux
TTITLE5=Gruff
TTITLE6=Duo
TTITLE7=Revolver
TTITLE8=Dodeka
TTITLE9=Dias
TTITLE10=Passaggio Nach Dem Regen
TTITLE11=In Orbit
EXTD=YEAR: 2005
EXTT0=
EXTT1=
EXTT2=
EXTT3=
EXTT4=
EXTT5=
EXTT6=
EXTT7=
EXTT8=
EXTT9=
EXTT10=
EXTT11=
PLAYORDER=
